<svg version="1" xmlns="http://www.w3.org/2000/svg" width="2666.667" height="2666.667" viewBox="0 0 2000.000000 2000.000000"><path d="M962.8.5c-.2.1-7 .6-15.3.9-8.2.4-16.8.9-19 1.1-2.2.2-7.1.6-11 1-3.8.3-8.6.7-10.5.9-1.9.2-7.1.7-11.5 1.1-4.4.4-8.7.9-9.6 1-.8.2-4 .6-7 .9-7.2.8-12.2 1.5-19.4 2.6-3.3.5-8.2 1.2-11 1.5-2.7.4-5.7.8-6.5 1-.8.2-2.8.6-4.5.9-13.3 2.2-24.4 4.2-38.5 7.2-9.1 1.9-17.6 3.7-19 4-4.7.8-7.5 1.5-12.5 2.9-2.7.8-8.1 2.2-12 3.1-3.8.9-12.4 3.1-19 4.9C645.7 60.3 554.9 99.9 475 149.3c-20.2 12.5-66.5 43.9-69 46.7-.3.3-2.1 1.7-4 3s-3.7 2.7-4 3c-.3.3-3.2 2.5-6.5 4.9-6 4.5-30.5 24-31.5 25.1-.3.3-5 4.3-10.5 9-33.4 28.3-75.1 69.4-102.6 101.5-1.9 2.1-4.1 4.7-4.9 5.5-2.5 2.7-10.1 11.9-17.4 20.9-3.8 4.7-7.2 8.8-7.5 9.1-1.1.8-29.5 38.7-34.2 45.6-31.7 46.9-41.9 63.3-62.8 101.4-8.7 15.8-32.4 65.2-39.2 81.5-.4 1.1-1.7 4-2.7 6.5-18.6 43.5-36.2 97.1-49.5 151-4.8 19.5-12.1 53.8-13.2 62.2-.2 1.5-.6 3.5-.9 4.5-.3 1-.8 3.8-1.1 6.3-.3 2.5-.8 5.6-1 7-.7 4.1-2.6 16.7-4 28-.4 2.5-.8 5.6-1 7-.8 5.4-2.3 19.3-2.9 27-.3 2.5-.7 7.6-1.1 11.5-3.6 39.7-4.2 118.6-1 153.5.2 1.9.6 7.8 1 13s.8 10.8 1 12.5c.2 1.6.6 5.9 1 9.5.4 3.6.9 7.2 1 8 .2.8.6 4.4 1 8 .4 3.6.9 7.8 1.1 9.5.2 1.6.6 4.8.9 7 .3 2.2 1.2 7.8 2 12.5s1.7 10.1 2 12c.5 3.9.6 4.5 3.6 21 3 16 9.3 44.6 14 63 2.2 8.5 4.2 16.2 4.4 17 6.3 26 31.2 97.4 44 126.5.7 1.6 3.1 7 5.3 12 13.2 29.9 28 59.5 45.7 91 10.6 18.9 46.5 75.9 49.4 78.5.3.3 2.1 2.7 4 5.5 3.7 5.4 27.4 37.1 31.2 41.9 1.3 1.6 6.4 7.9 11.4 14 29.5 36.4 68.5 77.4 104.6 109.8 1.4 1.3 4.5 4.1 6.9 6.3 8.2 7.5 37.4 31.6 51.5 42.4 32.8 25.3 76.3 54.6 107.5 72.4 26 14.9 75.3 40.3 88.5 45.7 1.1.4 4.5 1.9 7.5 3.3 29.4 13.6 94.8 37.6 123 45.2.8.3 4.7 1.3 8.5 2.4 18.9 5.4 47.1 12.5 61.5 15.6.8.2 3.8.9 6.5 1.5 2.8.6 5.7 1.3 6.5 1.5.8.1 3.3.6 5.5 1s4.7.9 5.5 1c.8.1 5.6 1 10.5 1.9 5 1 10.4 2 12 2.2 1.7.2 5.3.8 8 1.3 2.8.6 7.5 1.3 10.5 1.6 3 .3 6.2.8 7 1 .8.3 3.5.7 6 1 2.5.3 5.6.7 7 1 1.4.2 5.4.7 9 1.1 3.6.3 7.2.7 8 .9.8.2 5.1.6 9.5 1s9.1.8 10.5 1c2.4.4 11.5 1.2 22.5 2 33 2.6 112.9 2.6 138.5.1 2.5-.3 8.6-.8 13.5-1.1 5-.3 10.4-.8 12-1 1.7-.2 6.2-.7 10-1 6.5-.6 8.9-.9 17-2 1.7-.2 5.6-.7 8.8-1 3.2-.4 6.8-.8 8-1.1 1.2-.2 4.2-.7 6.7-1 4.5-.5 7.6-1 11.6-1.8 1.2-.2 3.9-.7 6-1 9.6-1.5 21.9-3.8 22.4-4.1.4-.2 2.9-.7 5.6-1 2.7-.4 6.5-1 8.4-1.5 1.9-.5 7.1-1.6 11.5-2.5 9-1.9 43.4-10.1 48-11.6 1.7-.5 10.2-2.9 19-5.4 26.6-7.6 75.2-24.1 91-31 1.7-.7 8.2-3.4 14.5-6 6.3-2.6 14.3-6 17.8-7.6 3.5-1.6 6.5-2.9 6.7-2.9.8 0 28.3-13.2 45-21.7 52.3-26.4 107.1-60.7 153-95.7 14.3-11 43.9-34.9 46.5-37.6.3-.3 3.4-3 6.9-6 3.5-3 7.4-6.4 8.6-7.5 1.2-1.1 7.5-7 14-13 25.3-23.5 58.2-57.6 77.5-80.5 3-3.6 5.8-6.7 6.1-7 1.7-1.4 27-33.5 37-47 20.9-28 44.6-63.6 59.4-89.2 4.4-7.6 15.7-27.8 19.3-34.3 4.3-7.9 26-51.9 29.9-60.5 7.7-17.1 20.2-48 30.1-74.5 8.1-21.9 21.4-65.6 28.7-94.5 4.2-16.6 13.9-62.4 15-70.7.2-1.1.6-2.9.9-4 .3-1 .8-3.8 1.1-6.3.2-2.5.7-5.6 1-7 .3-1.4.8-4.4 1.1-6.6.2-2.3.7-5.2.9-6.4.2-1.2.7-4.8 1.1-7.9.3-3.1.8-6.4 1-7.5.2-1 .6-4.1.9-7 .4-2.8.8-6.5 1-8.1.2-1.7.6-5.9 1-9.5.3-3.6.8-8.3 1-10.5.3-2.2.7-7.2 1-11 .3-3.9.8-9.3 1-12 2.7-33.3 2.7-102.8-.1-141.3-.6-9.4-2.1-25.1-3-32.2-.2-1.9-.6-6.4-.9-10-.3-3.6-.8-7.6-1-9-.3-1.4-.7-4.1-.9-6-.9-7-1.8-13.2-2-14.8-.2-1-.6-3.8-1-6.3s-.9-5.7-1.1-7c-.2-1.3-1.4-8-2.5-14.9-2.9-17.1-11.1-55.7-15.4-72-5.8-22.4-6.5-24.9-11.1-40.5-11.3-38.2-29.3-86.9-43.9-118.8-1.4-3.2-2.6-5.9-2.6-6.1 0-1.8-24.9-52-33-66.7-2.9-5.2-6.5-11.7-8.1-14.5-12.4-22.4-32-53.8-48.4-77.4-3.2-4.7-6.8-9.9-7.9-11.5-1.2-1.7-2.3-3.2-2.6-3.5-.3-.3-3.8-5-7.8-10.5-35.5-49.2-86.2-105.3-133.1-147.5-4.6-4.1-9.3-8.4-10.5-9.6-2.4-2.4-30-25.5-39.1-32.6-12.6-10-18.2-14.4-20.9-16.3-1.5-1.1-5.6-4.1-8.9-6.6-18.5-13.7-55.4-38.2-78.2-51.8-10.2-6.1-18.8-11.1-19-11.1-.3 0-2.2-1-4.3-2.3-9.3-5.9-47.6-25.5-69.2-35.6-44.1-20.5-105.8-43.4-147.5-54.6-28.3-7.6-36.2-9.7-38.5-10.2-1.4-.2-7-1.5-12.5-2.8-21-5.1-46.7-10-73-14-2.2-.3-5.1-.8-6.5-1-2.6-.5-6-1-14-2-2.5-.3-5.6-.7-7-.9-1.4-.3-5.6-.8-9.5-1.1-3.8-.4-8.1-.9-9.5-1-1.4-.1-5.6-.6-9.5-.9-3.8-.4-9-.9-11.5-1.1-4.2-.5-13.9-1.2-28.5-2.1-7.3-.5-90.2-1.3-90.7-.9z"/></svg>